<svg xmlns="http://www.w3.org/2000/svg" viewBox="0 0 479.74 63.71"><title>drip-dash-header</title><path d="M51,44.85H64a23.26,23.26,0,0,0-3.4-5.7l-18-22.4a2,2,0,0,0-3.1,0l-18,22.4a25,25,0,1,0,44.4,18.1,32.3,32.3,0,0,0,0-4.4H51Z" transform="translate(-16 -16)" fill="#0db8b0"/><path d="M76,44.85H64a24.14,24.14,0,0,1,2,8H76.1v-8Z" transform="translate(-16 -16)" fill="#0db8b0"/><path d="M112.32,32A17.22,17.22,0,0,1,119,38.69a19.32,19.32,0,0,1,2.4,9.67,19.46,19.46,0,0,1-2.4,9.7,17.13,17.13,0,0,1-6.68,6.67,19.42,19.42,0,0,1-9.69,2.4H94a1.4,1.4,0,0,1-1.44-1.44V31.08A1.34,1.34,0,0,1,93,30a1.42,1.42,0,0,1,1-.39h8.64A19.42,19.42,0,0,1,112.32,32Zm-1.48,30.41a14.85,14.85,0,0,0,5.64-5.78,16.91,16.91,0,0,0,2-8.31,16.77,16.77,0,0,0-2-8.28,15,15,0,0,0-5.64-5.76,16.09,16.09,0,0,0-8.21-2.08h-7.2v32.3h7.2A16.09,16.09,0,0,0,110.84,62.45Z" transform="translate(-16 -16)" fill="gray"/><path d="M143.38,42.17a1.37,1.37,0,0,1,0,.39,1.26,1.26,0,0,1-.45.74,1.49,1.49,0,0,1-.84.22,9.46,9.46,0,0,1-1.13-.1,9.83,9.83,0,0,0-1.18-.1,8.89,8.89,0,0,0-4.27,1,7.36,7.36,0,0,0-2.93,2.79,7.66,7.66,0,0,0-1.05,4V65.69a1.42,1.42,0,0,1-.39,1,1.36,1.36,0,0,1-1.05.41,1.39,1.39,0,0,1-1.44-1.44V42.32a1.39,1.39,0,0,1,.4-1.06,1.44,1.44,0,0,1,1-.38,1.33,1.33,0,0,1,1.44,1.44v3A10.1,10.1,0,0,1,135,41.84a9.14,9.14,0,0,1,4.7-1.25C142.16,40.59,143.38,41.12,143.38,42.17Z" transform="translate(-16 -16)" fill="gray"/><path d="M153.58,31.47a2.07,2.07,0,0,1,.65,1.63A2.22,2.22,0,0,1,152,35.36a2.1,2.1,0,0,1-1.58-.65,2.22,2.22,0,0,1-.63-1.61,2,2,0,0,1,.68-1.63,2.3,2.3,0,0,1,1.58-.58A2.24,2.24,0,0,1,153.58,31.47ZM151,41.26a1.41,1.41,0,0,1,1-.38,1.38,1.38,0,0,1,1,.38,1.43,1.43,0,0,1,.39,1.06V65.69a1.42,1.42,0,0,1-.39,1,1.33,1.33,0,0,1-1,.41,1.4,1.4,0,0,1-1.44-1.44V42.32A1.36,1.36,0,0,1,151,41.26Z" transform="translate(-16 -16)" fill="gray"/><path d="M183.31,42.34a12.77,12.77,0,0,1,4.83,4.82A13.61,13.61,0,0,1,189.89,54a13.47,13.47,0,0,1-1.75,6.81,12.73,12.73,0,0,1-4.83,4.83,13.54,13.54,0,0,1-6.86,1.75A13,13,0,0,1,170.28,66a11.2,11.2,0,0,1-4.34-4v15a1.43,1.43,0,0,1-.39,1.06,1.39,1.39,0,0,1-1.05.39,1.42,1.42,0,0,1-1-.39,1.36,1.36,0,0,1-.41-1.06V53.74A13.42,13.42,0,0,1,164.88,47a12.68,12.68,0,0,1,4.83-4.73,14.27,14.27,0,0,1,13.6.05Zm-1.48,21a10.2,10.2,0,0,0,3.79-3.84,11.46,11.46,0,0,0,0-10.94,10.72,10.72,0,0,0-14.55-3.87,10.13,10.13,0,0,0-3.76,3.87,11.61,11.61,0,0,0,0,10.94,10,10,0,0,0,3.76,3.84,11.11,11.11,0,0,0,10.76,0Z" transform="translate(-16 -16)" fill="gray"/><path d="M217.35,32A17.26,17.26,0,0,1,224,38.69a19.32,19.32,0,0,1,2.4,9.67,19.46,19.46,0,0,1-2.4,9.7,17.18,17.18,0,0,1-6.67,6.67,19.46,19.46,0,0,1-9.7,2.4H199a1.36,1.36,0,0,1-1-.41,1.39,1.39,0,0,1-.41-1V31.08a1.38,1.38,0,0,1,.41-1,1.42,1.42,0,0,1,1-.39h8.64A19.46,19.46,0,0,1,217.35,32Zm-1.49,30.41a14.85,14.85,0,0,0,5.64-5.78,16.91,16.91,0,0,0,2-8.31,16.77,16.77,0,0,0-2-8.28,15,15,0,0,0-5.64-5.76,16.09,16.09,0,0,0-8.21-2.08h-7.2v32.3h7.2A16.09,16.09,0,0,0,215.86,62.45Z" transform="translate(-16 -16)" fill="gray"/><path d="M252.43,42.34a12.77,12.77,0,0,1,4.83,4.82A13.61,13.61,0,0,1,259,54V65.69a1.45,1.45,0,0,1-.38,1,1.54,1.54,0,0,1-2.09,0,1.39,1.39,0,0,1-.41-1V62a11.27,11.27,0,0,1-4.34,4,13,13,0,0,1-6.17,1.46,13.61,13.61,0,0,1-6.87-1.75,12.77,12.77,0,0,1-4.82-4.83A13.47,13.47,0,0,1,232.18,54a13.61,13.61,0,0,1,1.75-6.87,12.82,12.82,0,0,1,4.82-4.82,13.61,13.61,0,0,1,6.87-1.75A13.47,13.47,0,0,1,252.43,42.34Zm-1.44,21a10,10,0,0,0,3.77-3.84,11.61,11.61,0,0,0,0-10.94A10.15,10.15,0,0,0,251,44.69a10.53,10.53,0,0,0-14.54,3.87,11.46,11.46,0,0,0,0,10.94,10.2,10.2,0,0,0,3.79,3.84,11.09,11.09,0,0,0,10.75,0Z" transform="translate(-16 -16)" fill="gray"/><path d="M284.35,44.91a1.15,1.15,0,0,1,.29.81,1.28,1.28,0,0,1-.77,1.11,2.12,2.12,0,0,1-.72.19,1.47,1.47,0,0,1-1.2-.62,8.22,8.22,0,0,0-6.86-3.12,7.71,7.71,0,0,0-4.66,1.27,3.78,3.78,0,0,0-1.72,3.14,3.56,3.56,0,0,0,1.65,3.07,13.58,13.58,0,0,0,5.55,1.73c3.39.48,5.83,1.39,7.32,2.71A6.27,6.27,0,0,1,285.46,60,5.84,5.84,0,0,1,284,63.92a9.11,9.11,0,0,1-3.77,2.59,14,14,0,0,1-5.13.91,15.56,15.56,0,0,1-5.43-1,10.47,10.47,0,0,1-4.36-3,1.28,1.28,0,0,1-.34-.87,1.3,1.3,0,0,1,.62-1.1,1.27,1.27,0,0,1,.82-.24,1.32,1.32,0,0,1,1.1.53q2.4,2.93,7.73,2.92c2.53,0,4.39-.44,5.59-1.34a4.14,4.14,0,0,0,1.8-3.46q0-3.78-7.34-4.84a14.72,14.72,0,0,1-7-2.55A5.57,5.57,0,0,1,265.92,48a6.45,6.45,0,0,1,2.57-5.45,10.83,10.83,0,0,1,6.7-1.94Q281.24,40.59,284.35,44.91Z" transform="translate(-16 -16)" fill="gray"/><path d="M310.2,42a10.4,10.4,0,0,1,4.32,4.2,13.21,13.21,0,0,1,1.56,6.6V65.69a1.39,1.39,0,0,1-.41,1,1.5,1.5,0,0,1-2.06,0,1.39,1.39,0,0,1-.41-1V52.78q0-4.56-2.57-7a9.4,9.4,0,0,0-6.69-2.4,10.79,10.79,0,0,0-4.63,1A8,8,0,0,0,296,47.14a6.7,6.7,0,0,0-1.2,3.86V65.69a1.42,1.42,0,0,1-.39,1,1.33,1.33,0,0,1-1.05.41,1.39,1.39,0,0,1-1.44-1.44V31.08a1.37,1.37,0,0,1,.4-1,1.46,1.46,0,0,1,1-.39,1.39,1.39,0,0,1,1.05.39,1.4,1.4,0,0,1,.39,1V44.81a11.32,11.32,0,0,1,4-3.14,11.76,11.76,0,0,1,5.14-1.13A13.34,13.34,0,0,1,310.2,42Z" transform="translate(-16 -16)" fill="gray"/><path d="M423.93,37a.38.38,0,0,1-.12.28.4.4,0,0,1-.27.11.38.38,0,0,1-.37-.24l-1-2.31h-5.29l-1,2.31a.35.35,0,0,1-.36.24.38.38,0,0,1-.29-.11.4.4,0,0,1-.1-.28.35.35,0,0,1,0-.17l3.93-9.32a.38.38,0,0,1,.38-.27.4.4,0,0,1,.38.27l3.95,9.32A.35.35,0,0,1,423.93,37Zm-2-2.86-2.35-5.61-2.34,5.61Z" transform="translate(-16 -16)" fill="silver"/><path d="M432.14,33.78V40a.37.37,0,0,1-.1.28.38.38,0,0,1-.29.1.36.36,0,0,1-.27-.1.35.35,0,0,1-.12-.28V36a2.91,2.91,0,0,1-1.17,1.08,3.46,3.46,0,0,1-1.67.4,3.72,3.72,0,0,1-1.86-.47,3.5,3.5,0,0,1-1.31-1.31,3.71,3.71,0,0,1-.47-1.85,3.78,3.78,0,0,1,.47-1.86,3.48,3.48,0,0,1,1.31-1.3,3.8,3.8,0,0,1,3.68,0,3.36,3.36,0,0,1,1.31,1.28,3.52,3.52,0,0,1,.49,1.82ZM430,36.36a2.68,2.68,0,0,0,1-1,3,3,0,0,0,.37-1.49,3,3,0,0,0-.37-1.48,2.62,2.62,0,0,0-1-1,2.76,2.76,0,0,0-1.45-.39,2.8,2.8,0,0,0-1.46.39,2.85,2.85,0,0,0-1,1,3,3,0,0,0-.37,1.48,3,3,0,0,0,.37,1.49,2.93,2.93,0,0,0,1,1,2.88,2.88,0,0,0,1.46.37A2.85,2.85,0,0,0,430,36.36Z" transform="translate(-16 -16)" fill="silver"/><path d="M440.79,30.38a.37.37,0,0,1,.1.28V37a.37.37,0,0,1-.1.28.35.35,0,0,1-.29.11.37.37,0,0,1-.28-.11.38.38,0,0,1-.11-.28v-.67a3.12,3.12,0,0,1-1.08.85,3.18,3.18,0,0,1-1.39.3,3.6,3.6,0,0,1-1.69-.39A2.77,2.77,0,0,1,434.78,36a3.62,3.62,0,0,1-.43-1.79v-3.5a.38.38,0,0,1,.39-.39.38.38,0,0,1,.28.11.37.37,0,0,1,.11.28v3.5a2.46,2.46,0,0,0,.7,1.88,2.51,2.51,0,0,0,1.81.65,2.9,2.9,0,0,0,1.26-.26,2.24,2.24,0,0,0,.89-.74,1.88,1.88,0,0,0,.32-1v-4a.38.38,0,0,1,.11-.28.41.41,0,0,1,.28-.11A.38.38,0,0,1,440.79,30.38Z" transform="translate(-16 -16)" fill="silver"/><path d="M448.33,30.67a3.55,3.55,0,0,1,1.31,1.3,3.78,3.78,0,0,1,.47,1.86V37a.37.37,0,0,1-.1.28.36.36,0,0,1-.29.11.36.36,0,0,1-.28-.11.38.38,0,0,1-.11-.28V36a3,3,0,0,1-1.18,1.08,3.41,3.41,0,0,1-1.67.4,3.78,3.78,0,0,1-1.86-.47,3.48,3.48,0,0,1-1.3-1.31,3.62,3.62,0,0,1-.48-1.85,3.68,3.68,0,0,1,.48-1.86,3.45,3.45,0,0,1,1.3-1.3,3.68,3.68,0,0,1,1.86-.48A3.65,3.65,0,0,1,448.33,30.67Zm-.39,5.69a2.83,2.83,0,0,0,1-1,3,3,0,0,0,.37-1.49,3,3,0,0,0-.37-1.48,2.87,2.87,0,0,0-3.93-1,2.71,2.71,0,0,0-1,1,3,3,0,0,0-.38,1.48,3,3,0,0,0,.38,1.49,2.78,2.78,0,0,0,1,1,3,3,0,0,0,2.91,0Z" transform="translate(-16 -16)" fill="silver"/><path d="M457.55,30.67a3.45,3.45,0,0,1,1.3,1.3,3.68,3.68,0,0,1,.48,1.86,3.62,3.62,0,0,1-.48,1.85,3.48,3.48,0,0,1-1.3,1.31,3.78,3.78,0,0,1-1.86.47,3.44,3.44,0,0,1-1.67-.4A3,3,0,0,1,452.84,36V40a.37.37,0,0,1-.1.28.39.39,0,0,1-.29.1.4.4,0,0,1-.28-.1.38.38,0,0,1-.11-.28V33.76a3.62,3.62,0,0,1,.49-1.82,3.42,3.42,0,0,1,1.31-1.28,3.82,3.82,0,0,1,3.69,0Zm-.41,5.69a2.78,2.78,0,0,0,1-1,3,3,0,0,0,.38-1.49,3,3,0,0,0-.38-1.48,2.71,2.71,0,0,0-1-1,2.76,2.76,0,0,0-1.45-.39,2.8,2.8,0,0,0-1.46.39,2.75,2.75,0,0,0-1,1,3,3,0,0,0-.37,1.48,3,3,0,0,0,.37,1.49,2.83,2.83,0,0,0,1,1,2.88,2.88,0,0,0,1.46.37A2.85,2.85,0,0,0,457.14,36.36Z" transform="translate(-16 -16)" fill="silver"/><path d="M466.37,30.67a3.48,3.48,0,0,1,1.31,1.3,3.68,3.68,0,0,1,.47,1.86,3.61,3.61,0,0,1-.47,1.85A3.5,3.5,0,0,1,466.37,37a3.88,3.88,0,0,1-3.7,0,3.5,3.5,0,0,1-1.31-1.31,3.71,3.71,0,0,1-.47-1.85,3.78,3.78,0,0,1,.47-1.86,3.48,3.48,0,0,1,1.31-1.3,3.81,3.81,0,0,1,3.7,0Zm-3.3.64a2.85,2.85,0,0,0-1,1,3,3,0,0,0-.37,1.48,3,3,0,0,0,.37,1.49,2.93,2.93,0,0,0,1,1,3,3,0,0,0,2.91,0,2.68,2.68,0,0,0,1-1,3,3,0,0,0,.37-1.49,3,3,0,0,0-.37-1.48,2.62,2.62,0,0,0-1-1,2.91,2.91,0,0,0-2.91,0Z" transform="translate(-16 -16)" fill="silver"/><path d="M475.05,30.57a2.79,2.79,0,0,1,1.17,1.14,3.59,3.59,0,0,1,.42,1.79V37a.38.38,0,0,1-.39.39.37.37,0,0,1-.28-.11.38.38,0,0,1-.11-.28V33.5a2.46,2.46,0,0,0-.69-1.89,2.58,2.58,0,0,0-1.82-.65,2.89,2.89,0,0,0-1.25.27,2.17,2.17,0,0,0-.89.74,1.78,1.78,0,0,0-.33,1v4a.37.37,0,0,1-.1.28.35.35,0,0,1-.29.11.37.37,0,0,1-.28-.11.38.38,0,0,1-.11-.28V30.66a.38.38,0,0,1,.11-.28.41.41,0,0,1,.28-.11.38.38,0,0,1,.29.11.37.37,0,0,1,.1.28v.68a3.07,3.07,0,0,1,1.08-.85,3.11,3.11,0,0,1,1.39-.31A3.61,3.61,0,0,1,475.05,30.57Z" transform="translate(-16 -16)" fill="silver"/><path d="M479.93,27.72a.65.65,0,0,1,0,.88.6.6,0,0,1-.44.18.57.57,0,0,1-.43-.18.61.61,0,0,1-.17-.43.58.58,0,0,1,.18-.45.68.68,0,0,1,.43-.15A.64.64,0,0,1,479.93,27.72Zm-.71,2.66a.41.41,0,0,1,.28-.11.38.38,0,0,1,.29.11.37.37,0,0,1,.1.28V37a.37.37,0,0,1-.1.28.35.35,0,0,1-.29.11.37.37,0,0,1-.28-.11.38.38,0,0,1-.11-.28V30.66A.38.38,0,0,1,479.22,30.38Z" transform="translate(-16 -16)" fill="silver"/><path d="M487,30.53a3.45,3.45,0,0,1,1.2,1,.42.42,0,0,1,.09.22.32.32,0,0,1-.18.29.32.32,0,0,1-.21.08.35.35,0,0,1-.3-.16,2.64,2.64,0,0,0-2.12-1,2.41,2.41,0,0,0-1.33.38,2.34,2.34,0,0,0-.91,1,3.43,3.43,0,0,0-.32,1.49,3.21,3.21,0,0,0,.35,1.49,2.62,2.62,0,0,0,2.41,1.41,2.61,2.61,0,0,0,1.83-.63.38.38,0,0,1,.28-.12.32.32,0,0,1,.23.09.36.36,0,0,1,.13.29.3.3,0,0,1-.11.23,3.07,3.07,0,0,1-1.06.64,3.74,3.74,0,0,1-1.3.23,3.56,3.56,0,0,1-1.81-.47,3.47,3.47,0,0,1-1.27-1.31,3.81,3.81,0,0,1-.46-1.85,4,4,0,0,1,.43-1.85,3.34,3.34,0,0,1,1.2-1.3,3.23,3.23,0,0,1,1.71-.47A3.56,3.56,0,0,1,487,30.53Z" transform="translate(-16 -16)" fill="silver"/><path d="M495.12,31.36a.34.34,0,0,1,.07.22.32.32,0,0,1-.2.3.58.58,0,0,1-.2.06.39.39,0,0,1-.32-.17,2.24,2.24,0,0,0-1.86-.85,2.07,2.07,0,0,0-1.26.35,1,1,0,0,0-.47.85,1,1,0,0,0,.45.83,3.77,3.77,0,0,0,1.5.47,3.75,3.75,0,0,1,2,.73,1.71,1.71,0,0,1,.61,1.31,1.55,1.55,0,0,1-.39,1,2.3,2.3,0,0,1-1,.7,3.7,3.7,0,0,1-1.39.25,4.16,4.16,0,0,1-1.47-.27,2.66,2.66,0,0,1-1.18-.81.35.35,0,0,1-.09-.23.4.4,0,0,1,.39-.37.37.37,0,0,1,.3.15,3.23,3.23,0,0,0,3.6.43,1.13,1.13,0,0,0,.49-.94c0-.68-.66-1.12-2-1.31a3.94,3.94,0,0,1-1.9-.69,1.53,1.53,0,0,1-.65-1.22,1.75,1.75,0,0,1,.7-1.48,2.93,2.93,0,0,1,1.81-.53A2.88,2.88,0,0,1,495.12,31.36Z" transform="translate(-16 -16)" fill="silver"/><path d="M455.3,43.86a.3.3,0,0,1,.12.26.45.45,0,0,1-.11.28.36.36,0,0,1-.29.12.51.51,0,0,1-.32-.16,3.77,3.77,0,0,0-2.61-.88,4,4,0,0,0-2.14.61,4.57,4.57,0,0,0-1.58,1.63,4.33,4.33,0,0,0-.59,2.18,4.48,4.48,0,0,0,.58,2.22,4.39,4.39,0,0,0,1.58,1.62,4.16,4.16,0,0,0,2.15.59,4.08,4.08,0,0,0,2.69-.95.33.33,0,0,1,.19-.06.38.38,0,0,1,.28.12.37.37,0,0,1,.13.28.43.43,0,0,1-.1.28,4.33,4.33,0,0,1-3.19,1.11,4.76,4.76,0,0,1-2.54-.71,5.24,5.24,0,0,1-1.86-1.91,5.21,5.21,0,0,1,0-5.18,5.24,5.24,0,0,1,1.84-1.9,5,5,0,0,1,5.77.45Z" transform="translate(-16 -16)" fill="silver"/><path d="M461.94,46.27a3.37,3.37,0,0,1,1.31,1.31,3.88,3.88,0,0,1,0,3.7,3.5,3.5,0,0,1-1.31,1.31,3.88,3.88,0,0,1-3.7,0,3.5,3.5,0,0,1-1.31-1.31,3.88,3.88,0,0,1,0-3.7,3.37,3.37,0,0,1,1.31-1.31,3.81,3.81,0,0,1,3.7,0Zm-3.3.64a2.78,2.78,0,0,0-1,1,3,3,0,0,0-.38,1.48,3,3,0,0,0,.38,1.49,2.78,2.78,0,0,0,1,1,3,3,0,0,0,2.91,0,2.75,2.75,0,0,0,1-1,3,3,0,0,0,.37-1.49,3,3,0,0,0-.37-1.48,2.87,2.87,0,0,0-3.93-1Z" transform="translate(-16 -16)" fill="silver"/><path d="M470.62,46.17a2.79,2.79,0,0,1,1.17,1.14,3.59,3.59,0,0,1,.42,1.79v3.49a.38.38,0,0,1-.11.28.36.36,0,0,1-.28.11.37.37,0,0,1-.28-.11.38.38,0,0,1-.11-.28V49.1a2.46,2.46,0,0,0-.69-1.89,2.58,2.58,0,0,0-1.82-.65,2.83,2.83,0,0,0-1.25.27,2.1,2.1,0,0,0-.89.74,1.77,1.77,0,0,0-.33,1v4a.37.37,0,0,1-.1.28.36.36,0,0,1-.29.11.37.37,0,0,1-.28-.11.38.38,0,0,1-.11-.28V46.26a.38.38,0,0,1,.11-.28.41.41,0,0,1,.28-.11.4.4,0,0,1,.29.11.37.37,0,0,1,.1.28v.68a3.07,3.07,0,0,1,1.08-.85,3.11,3.11,0,0,1,1.39-.31A3.64,3.64,0,0,1,470.62,46.17Z" transform="translate(-16 -16)" fill="silver"/><path d="M477.92,52.3a.36.36,0,0,1,.11.29.34.34,0,0,1-.11.28.36.36,0,0,1-.29.11h-.3a2.45,2.45,0,0,1-1.27-.32,2.32,2.32,0,0,1-.87-.89,2.61,2.61,0,0,1-.31-1.28V46.83h-1a.35.35,0,0,1-.25-.09.34.34,0,0,1-.1-.26.32.32,0,0,1,.1-.25.36.36,0,0,1,.25-.1h1V44a.36.36,0,0,1,.11-.29.37.37,0,0,1,.27-.11.42.42,0,0,1,.3.11.4.4,0,0,1,.11.29v2.12h1.71a.38.38,0,0,1,.26.1.36.36,0,0,1,.1.25.38.38,0,0,1-.1.26.37.37,0,0,1-.26.09h-1.71v3.66a1.66,1.66,0,0,0,.47,1.23,1.63,1.63,0,0,0,1.2.47h.29A.4.4,0,0,1,477.92,52.3Z" transform="translate(-16 -16)" fill="silver"/><path d="M483.66,46.22a.34.34,0,0,1,0,.11.43.43,0,0,1-.12.2.41.41,0,0,1-.23.06l-.31,0a1.89,1.89,0,0,0-.32,0,2.41,2.41,0,0,0-1.15.27,2,2,0,0,0-1.08,1.83v4a.38.38,0,0,1-.11.28.33.33,0,0,1-.28.11.36.36,0,0,1-.28-.11.38.38,0,0,1-.11-.28V46.26a.38.38,0,0,1,.11-.28.39.39,0,0,1,.28-.11.36.36,0,0,1,.28.11.38.38,0,0,1,.11.28v.81a2.78,2.78,0,0,1,1-.94,2.57,2.57,0,0,1,1.27-.34C483.33,45.79,483.66,45.94,483.66,46.22Z" transform="translate(-16 -16)" fill="silver"/><path d="M489.93,46.27a3.43,3.43,0,0,1,1.31,1.31,3.88,3.88,0,0,1,0,3.7,3.58,3.58,0,0,1-1.31,1.31,3.74,3.74,0,0,1-1.85.47,3.78,3.78,0,0,1-1.86-.47,3.48,3.48,0,0,1-1.3-1.31,3.81,3.81,0,0,1,0-3.7,3.34,3.34,0,0,1,1.3-1.31,3.68,3.68,0,0,1,1.86-.48A3.65,3.65,0,0,1,489.93,46.27Zm-3.3.64a2.71,2.71,0,0,0-1,1,3,3,0,0,0-.38,1.48,3,3,0,0,0,.38,1.49,2.71,2.71,0,0,0,1,1,3,3,0,0,0,2.91,0,2.75,2.75,0,0,0,1-1,3,3,0,0,0,.37-1.49,3,3,0,0,0-.37-1.48,2.87,2.87,0,0,0-3.93-1Z" transform="translate(-16 -16)" fill="silver"/><path d="M493.51,42.93a.43.43,0,0,1,.28-.1.44.44,0,0,1,.29.1.39.39,0,0,1,.1.29v7.62a1.74,1.74,0,0,0,.25,1,.75.75,0,0,0,.66.38h.33a.3.3,0,0,1,.23.11.41.41,0,0,1,.09.28.37.37,0,0,1-.1.28.36.36,0,0,1-.29.11h-.26a1.47,1.47,0,0,1-1.21-.6,2.36,2.36,0,0,1-.48-1.54V43.22A.4.4,0,0,1,493.51,42.93Z" transform="translate(-16 -16)" fill="silver"/><path d="M443.39,58.75a3.12,3.12,0,0,1,1.17,1.1.46.46,0,0,1,.05.21.28.28,0,0,1-.06.18.36.36,0,0,1-.16.14.32.32,0,0,1-.16,0,.42.42,0,0,1-.36-.2,2.52,2.52,0,0,0-2.22-1.13,2.62,2.62,0,0,0-1.69.49,1.65,1.65,0,0,0-.6,1.36,1.53,1.53,0,0,0,.6,1.22,3.91,3.91,0,0,0,1.84.7,4.43,4.43,0,0,1,2.4,1,2.58,2.58,0,0,1,.75,1.93,2.92,2.92,0,0,1-.4,1.56,2.53,2.53,0,0,1-1.11,1,3.74,3.74,0,0,1-1.68.35,4.17,4.17,0,0,1-2.11-.5,3.16,3.16,0,0,1-1.34-1.37.29.29,0,0,1,0-.16.33.33,0,0,1,.11-.26.44.44,0,0,1,.29-.1.4.4,0,0,1,.38.25,2.42,2.42,0,0,0,1,1,3.77,3.77,0,0,0,1.67.35,2.58,2.58,0,0,0,1.77-.56,2,2,0,0,0,.64-1.58,1.89,1.89,0,0,0-.63-1.46,3.32,3.32,0,0,0-1.87-.75,4.22,4.22,0,0,1-2.26-.94,2.29,2.29,0,0,1-.83-1.79,2.38,2.38,0,0,1,.38-1.33,2.52,2.52,0,0,1,1.08-.9,3.89,3.89,0,0,1,1.61-.32A3.47,3.47,0,0,1,443.39,58.75Z" transform="translate(-16 -16)" fill="silver"/><path d="M452.06,61.87a3.41,3.41,0,0,1,1.31,1.3,3.78,3.78,0,0,1,.47,1.86,3.71,3.71,0,0,1-.47,1.85,3.5,3.5,0,0,1-1.31,1.31,3.88,3.88,0,0,1-3.7,0,3.5,3.5,0,0,1-1.31-1.31,3.61,3.61,0,0,1-.47-1.85,3.68,3.68,0,0,1,.47-1.86,3.41,3.41,0,0,1,1.31-1.3,3.81,3.81,0,0,1,3.7,0Zm-3.3.64a2.78,2.78,0,0,0-1,1,3,3,0,0,0-.38,1.48,3,3,0,0,0,.38,1.49,2.85,2.85,0,0,0,5,0,3,3,0,0,0,.37-1.49,3,3,0,0,0-.37-1.48,2.87,2.87,0,0,0-3.93-1Z" transform="translate(-16 -16)" fill="silver"/><path d="M457.6,59.76a3,3,0,0,0-.43,1.7v.27h1.72a.33.33,0,0,1,.25.1.36.36,0,0,1,.1.25.38.38,0,0,1-.1.26.37.37,0,0,1-.25.09h-1.72v5.76a.38.38,0,0,1-.11.28.36.36,0,0,1-.29.11.38.38,0,0,1-.39-.39V62.43h-1a.35.35,0,0,1-.25-.09.34.34,0,0,1-.1-.26.34.34,0,0,1,.35-.35h1v-.27a3.4,3.4,0,0,1,.65-2.21,2.32,2.32,0,0,1,2-.82.4.4,0,0,1,.28.1.33.33,0,0,1,.11.25.36.36,0,0,1-.11.26.45.45,0,0,1-.28.09A1.54,1.54,0,0,0,457.6,59.76Z" transform="translate(-16 -16)" fill="silver"/><path d="M464,67.9a.4.4,0,0,1,.11.29.38.38,0,0,1-.11.28.36.36,0,0,1-.29.11h-.3a2.59,2.59,0,0,1-1.28-.32,2.4,2.4,0,0,1-.87-.89,2.61,2.61,0,0,1-.31-1.28V62.43h-1a.31.31,0,0,1-.35-.35.35.35,0,0,1,.09-.25.34.34,0,0,1,.26-.1h1V59.61a.4.4,0,0,1,.11-.29.39.39,0,0,1,.28-.11.4.4,0,0,1,.29.11.36.36,0,0,1,.11.29v2.12h1.72a.34.34,0,0,1,.35.35.34.34,0,0,1-.1.26.35.35,0,0,1-.25.09h-1.72v3.66a1.7,1.7,0,0,0,.47,1.23,1.65,1.65,0,0,0,1.21.47h.29A.4.4,0,0,1,464,67.9Z" transform="translate(-16 -16)" fill="silver"/><path d="M474,61.58a.37.37,0,0,1,.09.26.46.46,0,0,1,0,.19L472,68.34a.4.4,0,0,1-.14.18.43.43,0,0,1-.24.06.46.46,0,0,1-.23-.06.32.32,0,0,1-.13-.18l-1.77-5.5-1.71,5.5a.36.36,0,0,1-.37.24.44.44,0,0,1-.23-.06.38.38,0,0,1-.13-.18L464.89,62a1,1,0,0,1,0-.21c0-.23.1-.35.32-.35a.43.43,0,0,1,.22.06.37.37,0,0,1,.14.18l1.84,5.53,1.69-5.46a.41.41,0,0,1,.39-.31.4.4,0,0,1,.39.31l1.7,5.36,1.81-5.43a.37.37,0,0,1,.36-.24A.33.33,0,0,1,474,61.58Z" transform="translate(-16 -16)" fill="silver"/><path d="M480.35,61.87a3.48,3.48,0,0,1,1.31,1.3,3.78,3.78,0,0,1,.47,1.86v3.16a.37.37,0,0,1-.1.28.36.36,0,0,1-.29.11.36.36,0,0,1-.28-.11.38.38,0,0,1-.11-.28v-1a3,3,0,0,1-1.18,1.08,3.44,3.44,0,0,1-1.67.4,3.78,3.78,0,0,1-1.86-.47,3.48,3.48,0,0,1-1.3-1.31,3.62,3.62,0,0,1-.48-1.85,3.68,3.68,0,0,1,.48-1.86,3.38,3.38,0,0,1,1.3-1.3,3.68,3.68,0,0,1,1.86-.48A3.65,3.65,0,0,1,480.35,61.87ZM480,67.56a2.83,2.83,0,0,0,1-1,3,3,0,0,0,.37-1.49,3,3,0,0,0-.37-1.48,2.87,2.87,0,0,0-3.93-1,2.71,2.71,0,0,0-1,1,3,3,0,0,0-.38,1.48,3,3,0,0,0,.38,1.49,2.78,2.78,0,0,0,1,1,3,3,0,0,0,2.91,0Z" transform="translate(-16 -16)" fill="silver"/><path d="M488.08,61.82a.34.34,0,0,1,0,.11.43.43,0,0,1-.12.2.41.41,0,0,1-.23.06l-.31,0-.32,0a2.42,2.42,0,0,0-1.15.28,2,2,0,0,0-1.08,1.83v4a.38.38,0,0,1-.11.28.33.33,0,0,1-.28.11.36.36,0,0,1-.28-.11.38.38,0,0,1-.11-.28V61.86a.38.38,0,0,1,.11-.28.39.39,0,0,1,.28-.11.36.36,0,0,1,.28.11.38.38,0,0,1,.11.28v.81a2.78,2.78,0,0,1,1-.94,2.57,2.57,0,0,1,1.27-.34C487.75,61.39,488.08,61.54,488.08,61.82Z" transform="translate(-16 -16)" fill="silver"/><path d="M493.9,61.86a3,3,0,0,1,1.16,1.24,3.79,3.79,0,0,1,.42,1.8.33.33,0,0,1-.1.27.37.37,0,0,1-.28.1h-5.44a2.85,2.85,0,0,0,.4,1.37,2.57,2.57,0,0,0,1,.94,2.76,2.76,0,0,0,1.37.34,3,3,0,0,0,1-.18,2.1,2.1,0,0,0,.81-.46.43.43,0,0,1,.27-.1.36.36,0,0,1,.24.08.33.33,0,0,1,0,.52,3.1,3.1,0,0,1-1.08.62,3.59,3.59,0,0,1-1.28.25,3.68,3.68,0,0,1-1.83-.46,3.3,3.3,0,0,1-1.25-1.29,3.73,3.73,0,0,1-.46-1.87,3.94,3.94,0,0,1,.43-1.87,3.13,3.13,0,0,1,1.18-1.29,3.46,3.46,0,0,1,3.43,0Zm-3.41,1a2.91,2.91,0,0,0-.82,1.78h5.06a2.72,2.72,0,0,0-.78-1.78,2.54,2.54,0,0,0-3.46,0Z" transform="translate(-16 -16)" fill="silver"/></svg>